Coordinates
version=1
nRows=60
nColumns=12
inDegrees=yes

Units are S.I. units (second, meters, Newtons, ...)
Angles are in degrees

endheader
time	SC_y	SC_z	SC_x	AC_y	AC_z	AC_x	GH_y	GH_z	GH_yy	EL_x	PS_y
       0.0              -24.73          4.231          32.26          42.72          9.791          -11.3          31.84          2.181         -83.76          42.05          155.6
   0.01151              -24.74          4.233          32.26          42.72          9.787          -11.3          31.85           2.19         -83.75          42.05          155.6
   0.02302              -24.74          4.235          32.25          42.72          9.782          -11.3          31.86          2.199         -83.75          42.05          155.5
   0.03453              -24.74          4.238          32.25          42.72          9.778          -11.3          31.87          2.208         -83.75          42.06          155.5
   0.04604              -24.75          4.241          32.25          42.71          9.773          -11.3          31.88          2.218         -83.74          42.06          155.5
   0.05755              -24.75          4.243          32.24          42.71          9.768          -11.3           31.9          2.229         -83.74          42.06          155.5
   0.06906              -24.76          4.246          32.24          42.71          9.762          -11.3          31.91          2.241         -83.73          42.06          155.5
   0.08057              -24.76           4.25          32.24          42.71          9.756          -11.3          31.92          2.253         -83.73          42.06          155.5
   0.09208              -24.77          4.253          32.23           42.7           9.75          -11.3          31.94          2.266         -83.73          42.07          155.5
    0.1036              -24.77          4.257          32.23           42.7          9.743          -11.3          31.95          2.281         -83.72          42.07          155.5
    0.1151              -24.78          4.261          32.22           42.7          9.736          -11.3          31.97          2.296         -83.72          42.07          155.5
    0.1266              -24.78          4.265          32.22          42.69          9.728          -11.3          31.99          2.312         -83.71          42.07          155.5
    0.1381              -24.79           4.27          32.21          42.69          9.719          -11.3          32.01           2.33          -83.7          42.08          155.5
    0.1496               -24.8          4.275           32.2          42.69           9.71         -11.31          32.03          2.349          -83.7          42.08          155.5
    0.1611               -24.8           4.28           32.2          42.68            9.7         -11.31          32.05           2.37         -83.69          42.08          155.5
    0.1726              -24.81          4.286          32.19          42.68          9.689         -11.31          32.08          2.393         -83.68          42.09          155.5
    0.1842              -24.82          4.293          32.18          42.67          9.678         -11.31           32.1          2.417         -83.67          42.09          155.5
    0.1957              -24.83            4.3          32.17          42.66          9.665         -11.31          32.13          2.444         -83.66           42.1          155.5
    0.2072              -24.84          4.307          32.16          42.66          9.651         -11.31          32.17          2.473         -83.65           42.1          155.4
    0.2187              -24.85          4.316          32.15          42.65          9.636         -11.31           32.2          2.505         -83.64          42.11          155.4
    0.2302              -24.87          4.325          32.14          42.64          9.619         -11.32          32.24           2.54         -83.63          42.11          155.4
    0.2417              -24.88          4.335          32.13          42.64            9.6         -11.32          32.28          2.578         -83.62          42.12          155.4
    0.2532               -24.9          4.346          32.11          42.63           9.58         -11.32          32.33          2.621          -83.6          42.13          155.4
    0.2647              -24.92          4.358           32.1          42.62          9.557         -11.32          32.38          2.668         -83.58          42.13          155.4
    0.2762              -24.94          4.372          32.08          42.61          9.532         -11.33          32.44           2.72         -83.57          42.14          155.4
    0.2877              -24.96          4.388          32.06          42.59          9.504         -11.33          32.51          2.779         -83.55          42.15          155.3
    0.2993              -24.98          4.405          32.04          42.58          9.473         -11.34          32.58          2.844         -83.52          42.16          155.3
    0.3108              -25.01          4.424          32.01          42.56          9.437         -11.34          32.66          2.918          -83.5          42.18          155.3
    0.3223              -25.04          4.446          31.99          42.55          9.397         -11.35          32.75          3.001         -83.47          42.19          155.2
    0.3338              -25.08          4.471          31.96          42.52          9.352         -11.35          32.86          3.095         -83.43          42.21          155.2
    0.3453              -25.12          4.499          31.92           42.5            9.3         -11.36          32.98          3.203          -83.4          42.22          155.2
    0.3568              -25.16          4.531          31.88          42.48          9.241         -11.37          33.11          3.327         -83.35          42.24          155.1
    0.3683              -25.22          4.569          31.83          42.44          9.172         -11.37          33.27           3.47          -83.3          42.27          155.1
    0.3798              -25.28          4.612          31.78          42.41          9.093         -11.38          33.45          3.636         -83.24           42.3          155.0
    0.3913              -25.35          4.663          31.71          42.37          8.999          -11.4          33.67           3.83         -83.17          42.33          154.9
    0.4028              -25.44          4.723          31.63          42.32          8.889         -11.41          33.92          4.059         -83.09          42.37          154.8
    0.4144              -25.54          4.795          31.54          42.26          8.759         -11.43          34.22          4.331          -83.0          42.41          154.7
    0.4259              -25.66           4.88          31.44          42.19          8.602         -11.45          34.59          4.657         -82.88          42.47          154.6
    0.4374              -25.81          4.984           31.3          42.11          8.413         -11.47          35.02          5.052         -82.74          42.53          154.5
    0.4489              -25.99           5.11          31.14           42.0          8.181          -11.5          35.56          5.534         -82.57          42.61          154.3
    0.4604              -26.21          5.266          30.95          41.87          7.896         -11.54          36.22          6.129         -82.37          42.71          154.1
    0.4719              -26.49          5.461           30.7          41.71           7.54         -11.58          37.04           6.87          -82.1          42.84          153.8
    0.4834              -26.84          5.706          30.39          41.51          7.091         -11.64          38.07          7.805         -81.77           43.0          153.4
    0.4949              -27.29          6.018          29.99          41.26          6.521         -11.71          39.39          8.993         -81.36          43.19          153.0
    0.5064              -27.85          6.417          29.49          40.93           5.79         -11.81          41.07          10.51         -80.82          43.45          152.4
    0.5179              -28.59          6.929          28.84          40.51          4.854         -11.93          43.23          12.46         -80.13          43.78          151.7
    0.5295              -29.52          7.583          28.01          39.98          3.657         -12.08          45.99          14.96         -79.26           44.2          150.7
     0.541              -30.69          8.405          26.96          39.31          2.152         -12.27          49.47          18.09         -78.15          44.72          149.6
    0.5525              -32.12          9.407          25.69          38.49         0.3188         -12.51           53.7          21.91         -76.81          45.36          148.1
     0.564              -33.78          10.57          24.22          37.54         -1.807         -12.78           58.6          26.34         -75.25          46.11          146.5
    0.5755              -35.58          11.83          22.62          36.51         -4.108         -13.08          63.91          31.13         -73.56          46.91          144.7
     0.587              -37.37          13.08          21.03          35.48         -6.409         -13.37          69.22          35.92         -71.87          47.71          142.9
    0.5985              -39.03          14.24          19.56          34.53         -8.535         -13.64          74.12          40.35         -70.31          48.46          141.2
      0.61              -40.46          15.25          18.28          33.71         -10.37         -13.88          78.35          44.17         -68.96           49.1          139.8
    0.6215              -41.64          16.07          17.24          33.04         -11.87         -14.07          81.82           47.3         -67.86          49.62          138.6
     0.633              -42.57          16.72          16.41           32.5         -13.07         -14.22          84.58           49.8         -66.98          50.04          137.6
    0.6446               -43.3          17.23          15.76          32.08         -14.01         -14.34          86.75          51.75         -66.29          50.37          136.9
    0.6561              -43.87          17.63          15.26          31.76         -14.74         -14.44          88.43          53.27         -65.76          50.62          136.3
    0.6676              -44.32          17.95          14.86           31.5         -15.31         -14.51          89.75          54.46         -65.34          50.82          135.9
    0.6791              -44.67          18.19          14.55           31.3         -15.76         -14.57          90.78          55.39         -65.01          50.98          135.5
